<?xml version="1.0" encoding="utf-8"?>
<!-- Generator: Adobe Illustrator 16.0.0, SVG Export Plug-In . SVG Version: 6.00 Build 0)  -->
<!DOCTYPE svg PUBLIC "-//W3C//DTD SVG 1.1//EN" "http://www.w3.org/Graphics/SVG/1.1/DTD/svg11.dtd">
<svg version="1.1" id="Layer_1" xmlns="http://www.w3.org/2000/svg" xmlns:xlink="http://www.w3.org/1999/xlink" x="0px" y="0px"
	 width="434.785px" height="105.498px" viewBox="0 0 434.785 105.498" enable-background="new 0 0 434.785 105.498"
	 xml:space="preserve">
<g>
	<path d="M150.711,19.291c0.603-1.507,1.356-4.371,1.356-6.179c0-3.617-2.864-4.672-9.344-4.672h-5.275V0h41.144v8.439
		c-9.495,0-12.057,3.165-13.865,7.988l-34.061,89.07h-20.497L89.372,51.091l-20.798,54.407H48.077l-34.211-89.07
		C12.057,11.604,9.495,8.439,0,8.439V0h50.94v8.439h-5.275c-6.481,0-9.495,1.055-9.495,4.672c0,1.809,0.754,4.069,1.356,5.576
		l25.771,70.231l20.497-51.996l-7.837-20.497c-1.809-4.823-4.371-7.988-13.866-7.988V0h50.94v8.439h-5.275
		c-6.48,0-9.495,1.055-9.495,4.672c0,1.809,0.753,4.069,1.356,5.576l25.771,70.231L150.711,19.291z"/>
	<path d="M249.266,74.451c5.426-7.385,10.249-19.592,11.304-30.142h-12.057V34.061h36.472v10.249h-12.509
		c-1.809,11.755-8.289,27.73-16.126,36.472c12.207,12.811,18.989,15.071,22.305,15.674c2.261,0.452,4.521,0.904,6.782,1.206
		c0,2.713-0.302,5.274-0.302,7.837h-30.443c-4.069-3.467-7.535-7.385-11.906-11.304c-8.289,7.385-20.044,12.811-34.965,12.811
		c-21.853,0-32.554-11.604-32.554-26.977c0-14.318,9.344-22.607,22.908-28.786l-2.411-2.412c-6.33-6.33-11.153-14.468-11.153-24.264
		c0-14.92,11.454-26.375,30.594-26.375c20.497,0,27.58,13.262,27.58,23.963c0,12.66-10.098,21.25-21.25,26.525L249.266,74.451z
		 M205.108,57.873c-5.727,4.521-10.55,11.303-10.55,19.743c0,11.756,9.193,17.784,20.346,17.784c7.385,0,15.071-2.713,21.401-7.987
		L205.108,57.873z M215.055,43.103c8.741-4.371,14.77-12.66,14.77-20.949c0-7.385-4.672-15.071-14.167-15.071
		c-8.44,0-14.167,6.029-14.167,13.866c0,4.672,1.959,9.495,4.823,13.112C207.821,36.02,210.986,39.486,215.055,43.103z"/>
	<path d="M337.275,0l30.293,74.752L396.655,0h38.13v8.289l-7.837,1.206c-3.919,0.603-6.18,1.809-6.18,6.179c0,4.22,2.11,74,2.11,74
		c0.15,4.672,2.411,5.877,6.18,6.48l7.837,1.055v8.289h-48.077v-8.289l7.837-1.055c4.22-0.604,6.179-2.412,6.33-6.33l-1.809-69.478
		L370.281,97.51h-14.619l-30.896-74.301l-0.903,66.614c0,4.22,2.109,5.878,6.179,6.33l9.043,1.055v8.289h-42.803v-8.289l7.838-1.055
		c4.068-0.604,6.028-2.261,6.329-6.48c0,0,1.809-70.081,1.809-73.849c0-4.823-2.863-5.727-6.33-6.33l-7.083-1.206V0H337.275z"/>
</g>
</svg>
