<?xml version="1.0" encoding="UTF-8" standalone="no"?>
<svg width="604px" height="70px" viewBox="0 0 604 70" version="1.1" xmlns="http://www.w3.org/2000/svg" xmlns:xlink="http://www.w3.org/1999/xlink" xmlns:sketch="http://www.bohemiancoding.com/sketch/ns">
    <!-- Generator: Sketch 3.3 (11970) - http://www.bohemiancoding.com/sketch -->
    <title>Vector Smart Object</title>
    <desc>Created with Sketch.</desc>
    <defs>
        <path id="path-1" d="M0,0.806 L603.382,0.806 L603.382,70 L0,70 L0,0.806 Z"></path>
        <path id="path-3" d="M0,0.806 L603.382,0.806 L603.382,70 L0,70 L0,0.806 Z"></path>
        <path id="path-5" d="M0,0.806 L603.382,0.806 L603.382,70 L0,70 L0,0.806 Z"></path>
    </defs>
    <g id="Page-1" stroke="none" stroke-width="1" fill="none" fill-rule="evenodd" sketch:type="MSPage">
        <g id="Vector-Smart-Object" sketch:type="MSLayerGroup">
            <path d="M49.9063,51.3984 L57.7953,51.3984 L73.0883,12.3914 C74.7943,8.0004 76.7183,6.8374 80.1393,6.6984 L80.1393,3.4064 L61.8363,3.4064 L61.8363,6.6984 L65.4083,6.9024 C67.8013,7.0444 68.9703,7.5904 68.9703,9.1054 C68.9703,9.7194 68.6953,10.7444 68.4863,11.3644 L56.1463,44.4054 L43.9423,11.4314 C43.6763,10.6114 43.5333,9.9224 43.5333,9.2374 C43.5333,7.5224 44.8383,7.0444 47.1643,6.9024 L51.0703,6.6984 L51.0703,3.4064 L27.5553,3.4064 L27.5553,6.6984 C31.8133,7.1124 33.3193,8.1394 34.2143,10.5434 L37.7773,19.9324 L28.2423,44.4054 L15.9763,11.2284 C15.7683,10.6114 15.5603,9.7904 15.5603,9.1734 C15.5603,7.5904 16.7303,7.0444 18.9903,6.9024 L22.2193,6.6984 L22.2193,3.4064 L0.0003,3.4064 L0.0003,6.6984 C3.7733,6.8374 5.5543,8.6864 6.9943,12.3914 L22.0103,51.3984 L29.8893,51.3984 L39.9693,25.4834 L49.9063,51.3984 Z" id="Fill-1" fill="#030404" sketch:type="MSShapeGroup"></path>
            <path d="M283.4678,24.2798 C284.5708,21.4008 285.4578,20.8488 288.2018,20.4378 L288.8208,20.2968 L288.8208,17.0748 L273.1868,17.0748 L273.1868,20.2968 C275.7298,20.4378 278.5318,20.2318 278.5318,22.4318 C278.5318,22.9718 278.3988,23.7988 278.0548,24.6898 L270.5178,46.0098 C263.5248,25.0968 261.6008,17.0748 261.6008,17.0748 L248.8518,17.0748 L248.8518,20.2318 C251.8638,21.0578 253.5118,20.8488 254.6838,24.1408 L264.1428,51.3578 L268.2518,51.3578 L264.0008,61.7748 C262.6298,60.6788 261.1908,60.3368 259.7508,60.3368 C257.2168,60.3368 254.6078,61.8448 254.6078,65.1378 C254.6078,67.9428 256.4648,69.9998 259.8198,69.9998 C265.9248,69.9998 268.8698,62.6658 273.1868,51.3578 L283.4678,24.2798 Z" id="Fill-3" fill="#030404" sketch:type="MSShapeGroup"></path>
            <path d="M171.3223,41.0371 C171.3223,34.8691 166.0503,32.5391 161.4483,31.2991 L155.9013,29.7961 C152.2633,28.8331 150.8923,27.5321 150.8923,24.7211 C150.8923,22.3241 152.6733,20.1911 157.1313,20.1911 C162.0003,20.1911 165.1543,22.3911 165.3633,27.2601 L169.0603,27.1181 L169.3383,17.3871 C169.3383,17.3871 161.1763,16.7691 157.2703,16.7691 C149.7293,16.7691 144.3843,20.4011 144.3843,26.8471 C144.3843,33.2921 149.1093,35.5511 154.3203,36.9211 L158.2993,37.9521 C162.7533,39.1151 164.8103,40.4171 164.8103,43.4371 C164.8103,46.9331 161.7253,48.8521 157.1993,48.8521 C150.0063,48.8521 148.4243,43.9901 147.8793,39.8701 L144.1073,40.2811 L144.9313,51.3981 C147.8083,51.6071 153.6353,52.0741 157.7523,52.0741 C167.2133,52.0741 171.3223,46.8651 171.3223,41.0371" id="Fill-5" fill="#030404" sketch:type="MSShapeGroup"></path>
            <path d="M216.1191,47.9673 L213.8611,47.6953 C211.8791,47.4923 209.4761,46.2583 206.4591,42.4873 L198.7991,32.9623 L195.4771,32.9623 L204.8761,24.5973 C207.1431,22.5393 209.5451,21.1673 213.1741,20.8243 L214.6131,20.6813 L214.6131,17.0533 L196.3101,17.0533 L196.3101,20.4813 L198.7111,20.8243 C199.9481,21.0303 200.3581,21.5773 200.3581,22.2623 C200.3581,22.9493 199.8741,23.7743 198.9871,24.5973 L189.5941,32.9623 L204.0561,51.3983 L215.5741,51.3983 L216.1191,47.9673 Z M180.4741,44.4743 C180.4741,46.8033 179.1021,47.3563 177.1211,47.7663 L174.7201,48.2473 L174.7201,51.3983 L193.7751,51.3983 L193.7751,48.2473 L191.3751,47.7663 C189.3921,47.3563 188.0191,46.7393 188.0191,44.4743 L188.0191,27.3373 C188.0191,12.8013 188.4961,1.6263 188.4961,1.6263 L174.7201,1.6263 L174.7201,4.8503 L177.1871,5.3293 C179.1021,5.7423 180.4741,6.4923 180.4741,8.6173 L180.4741,44.4743 Z" id="Fill-7" fill="#030404" sketch:type="MSShapeGroup"></path>
            <g id="Group-11">
                <mask id="mask-2" sketch:name="Clip 10" fill="white">
                    <use xlink:href="#path-1"></use>
                </mask>
                <g id="Clip-10"></g>
                <path d="M135.7207,5.6035 C135.7207,2.1785 134.2827,0.8055 130.9237,0.8055 C127.4937,0.8055 126.0547,2.2435 126.0547,5.6035 C126.0547,8.9635 127.4937,10.3325 130.8577,10.3325 C134.2827,10.3325 135.7207,8.9635 135.7207,5.6035 L135.7207,5.6035 Z M134.9027,16.5725 L121.5337,17.2605 L121.5337,20.4105 L124.0027,20.9595 C125.9167,21.3765 127.2897,21.8515 127.2897,24.2515 L127.2897,44.4745 C127.2897,46.8035 125.9167,47.4265 124.0027,47.7665 L121.5337,48.2475 L121.5337,51.3985 L140.6567,51.3985 L140.6567,48.2475 L138.1877,47.7665 C136.2707,47.4265 134.9027,46.8035 134.9027,44.4745 L134.9027,16.5725 Z" id="Fill-9" fill="#030404" sketch:type="MSShapeGroup" mask="url(#mask-2)"></path>
            </g>
            <path d="M90.6113,28.7046 C90.6113,24.3876 94.3143,21.5116 99.3863,21.5116 L100.6913,21.5116 C103.2953,21.5116 105.9003,22.8826 105.9003,26.8566 L105.9003,51.3986 L119.2713,51.3986 L119.2713,48.2476 L116.7993,47.7666 C114.8123,47.3566 113.5073,46.7396 113.5073,44.4746 L113.5073,26.3066 C113.5073,19.6516 109.3963,16.5726 103.0213,16.5726 L101.5123,16.5726 C96.1623,16.5726 92.2563,19.3146 90.4083,22.1256 C90.4083,14.4496 90.6113,3.4066 90.6113,3.4066 L77.2453,3.4066 L77.2453,6.2266 L80.1393,6.6986 C81.1883,6.6986 83.0003,6.4926 83.0003,8.6176 L83.0003,44.4746 C83.0003,46.8036 81.6313,47.3566 79.6463,47.7666 L77.2453,48.2476 L77.2453,51.3986 L96.3673,51.3986 L96.3673,48.2476 L93.8993,47.7666 C91.9123,47.3566 90.6113,46.8036 90.6113,44.4746 L90.6113,28.7046 Z" id="Fill-12" fill="#030404" sketch:type="MSShapeGroup"></path>
            <path d="M232.1211,16.7388 C221.3551,16.7388 215.8051,24.3448 215.8051,34.2208 L215.8051,35.9298 C215.8051,44.5698 221.6971,52.1048 232.5311,52.1048 C239.6581,52.1048 244.5271,49.4358 245.9671,48.1338 L245.9671,44.1558 C245.9671,44.1558 241.7841,46.9028 235.6151,46.9028 C227.5961,46.9028 224.3011,42.4438 224.3011,35.2458 L224.3011,33.9438 L246.3751,33.9438 L246.3751,30.6478 C246.3751,23.6628 242.9501,16.7388 232.1211,16.7388 L232.1211,16.7388 Z M238.0191,29.7628 L224.3011,29.7628 L224.3011,28.5928 C224.3011,22.6348 227.6621,20.1608 231.7781,20.1608 C235.9571,20.1608 238.0191,22.9778 238.0191,26.6768 L238.0191,29.7628 Z" id="Fill-14" fill="#030404" sketch:type="MSShapeGroup"></path>
            <path d="M343.873,3.4067 L343.873,6.6277 L346.683,7.1127 C348.599,7.4547 349.974,8.0007 349.974,10.4047 C349.974,11.2287 349.149,44.4707 349.149,44.4707 C349.008,46.5967 347.912,47.4917 345.857,47.7627 L342.71,48.1797 L342.71,51.3987 L361.217,51.3987 L361.217,48.1797 L357.444,47.7627 C355.392,47.5597 354.154,46.6677 354.226,44.4707 L354.769,12.7337 L369.921,47.9027 L375.202,47.9027 L390.415,11.4317 L391.311,44.4707 C391.377,46.5967 390.144,47.4917 388.019,47.7627 L384.868,48.1797 L384.868,51.3987 L405.774,51.3987 L405.774,48.1797 L402.624,47.7627 C400.633,47.4917 399.466,46.7397 399.399,44.4707 L398.436,10.2007 C398.508,8.1397 399.948,7.3837 401.658,7.1127 L404.82,6.6277 L404.82,3.4067 L388.977,3.4067 L374.656,38.7167 L359.708,3.4067 L343.873,3.4067 Z" id="Fill-16" fill="#030404" sketch:type="MSShapeGroup"></path>
            <path d="M504.5127,20.8579 L504.5127,16.8099 L494.7847,16.8099 L494.7847,5.2949 L487.4467,5.2949 L487.8557,13.6589 C487.9307,14.7549 487.4467,16.2639 485.1167,16.4639 L481.3467,16.8099 L481.3467,20.8579 L487.1717,20.8579 L487.1717,43.0649 C487.1717,49.1699 489.8467,51.5649 494.9227,51.5649 C499.4447,51.5649 504.3777,49.5129 504.3777,49.5129 L504.3777,45.6069 C504.3777,45.6069 501.0197,46.2199 498.3477,46.2199 C496.2237,46.2199 494.7847,45.6779 494.7847,41.9039 L494.7847,20.8579 L504.5127,20.8579 Z" id="Fill-18" fill="#030404" sketch:type="MSShapeGroup"></path>
            <path d="M468.8047,51.3984 L482.1747,51.3984 L482.1747,48.2474 L479.7717,47.7664 C477.7837,47.3564 476.4087,46.7394 476.4087,44.4744 L476.4087,26.3064 C476.4087,19.6514 472.3027,16.5724 465.9237,16.5724 L464.6227,16.5724 C459.2067,16.5724 455.3607,19.1084 453.3107,22.2624 L453.3107,21.5774 C453.3107,16.7754 450.0187,16.5724 447.7567,16.5724 C445.2187,16.5724 441.2427,17.1184 440.1467,17.3934 L440.1467,20.7524 C444.6727,20.7524 445.9027,21.6484 445.9027,24.7974 L445.9027,44.4744 C445.9027,46.8034 444.5347,47.3564 442.5467,47.7664 L440.1467,48.2474 L440.1467,51.3984 L459.2777,51.3984 L459.2777,48.2474 L456.8737,47.7664 C454.8857,47.3564 453.5157,46.7394 453.5157,44.4744 L453.5157,28.7754 C453.5157,24.3874 457.1447,21.5114 462.2247,21.5114 L463.5277,21.5114 C466.0607,21.5114 468.8047,22.9494 468.8047,26.8564 L468.8047,51.3984 Z" id="Fill-20" fill="#030404" sketch:type="MSShapeGroup"></path>
            <path d="M559.439,51.3984 L572.812,51.3984 L572.812,48.2474 L570.409,47.7664 C568.422,47.3564 567.045,46.7394 567.045,44.4744 L567.045,26.3064 C567.045,19.6514 562.943,16.5724 556.562,16.5724 L555.261,16.5724 C549.844,16.5724 545.999,19.1084 543.947,22.2624 L543.947,21.5774 C543.947,16.7754 540.656,16.5724 538.394,16.5724 C535.855,16.5724 531.881,17.1184 530.784,17.3934 L530.784,20.7524 C535.308,20.7524 536.541,21.6484 536.541,24.7974 L536.541,44.4744 C536.541,46.8034 535.171,47.3564 533.184,47.7664 L530.784,48.2474 L530.784,51.3984 L549.915,51.3984 L549.915,48.2474 L547.512,47.7664 C545.521,47.3564 544.152,46.7394 544.152,44.4744 L544.152,28.7754 C544.152,24.3874 547.784,21.5114 552.861,21.5114 L554.164,21.5114 C556.701,21.5114 559.439,22.9494 559.439,26.8564 L559.439,51.3984 Z" id="Fill-22" fill="#030404" sketch:type="MSShapeGroup"></path>
            <g id="Group-26">
                <mask id="mask-4" sketch:name="Clip 25" fill="white">
                    <use xlink:href="#path-3"></use>
                </mask>
                <g id="Clip-25"></g>
                <path d="M522.3848,5.6035 C522.3848,2.1785 520.9478,0.8055 517.5878,0.8055 C514.1588,0.8055 512.7178,2.2435 512.7178,5.6035 C512.7178,8.9635 514.1588,10.3325 517.5218,10.3325 C520.9478,10.3325 522.3848,8.9635 522.3848,5.6035 L522.3848,5.6035 Z M521.5638,16.5725 L504.5128,16.8095 L504.5128,20.8575 L510.6678,20.9595 C512.5808,21.3765 513.9508,21.8515 513.9508,24.2515 L513.9508,44.4745 C513.9508,46.8035 512.5808,47.4265 510.6678,47.7665 L508.1968,48.2475 L508.1968,51.3985 L527.3188,51.3985 L527.3188,48.2475 L524.8518,47.7665 C522.9308,47.4265 521.5638,46.8035 521.5638,44.4745 L521.5638,16.5725 Z" id="Fill-24" fill="#030404" sketch:type="MSShapeGroup" mask="url(#mask-4)"></path>
            </g>
            <path d="M422.7129,16.7388 C411.9459,16.7388 406.3999,24.3448 406.3999,34.2208 L406.3999,35.9298 C406.3999,44.5698 412.2919,52.1048 423.1219,52.1048 C430.2509,52.1048 435.1179,49.4358 436.5569,48.1338 L436.5569,44.1558 C436.5569,44.1558 432.3769,46.9028 426.2059,46.9028 C418.1889,46.9028 414.8919,42.4438 414.8919,35.2458 L414.8919,33.9438 L436.9699,33.9438 L436.9699,30.6478 C436.9699,23.6628 433.5429,16.7388 422.7129,16.7388 L422.7129,16.7388 Z M428.6089,29.7628 L414.8919,29.7628 L414.8919,28.5928 C414.8919,22.6348 418.2549,20.1608 422.3729,20.1608 C426.5469,20.1608 428.6089,22.9778 428.6089,26.6768 L428.6089,29.7628 Z" id="Fill-27" fill="#030404" sketch:type="MSShapeGroup"></path>
            <g id="Group-31">
                <mask id="mask-6" sketch:name="Clip 30" fill="white">
                    <use xlink:href="#path-5"></use>
                </mask>
                <g id="Clip-30"></g>
                <path d="M589.1245,16.7388 C578.3605,16.7388 572.8125,24.3448 572.8125,34.2208 L572.8125,35.9298 C572.8125,44.5698 578.7045,52.1048 589.5365,52.1048 C596.6655,52.1048 601.5305,49.4358 602.9705,48.1338 L602.9705,44.1558 C602.9705,44.1558 598.7885,46.9028 592.6185,46.9028 C584.6015,46.9028 581.3065,42.4438 581.3065,35.2458 L581.3065,33.9438 L603.3825,33.9438 L603.3825,30.6478 C603.3825,23.6628 599.9545,16.7388 589.1245,16.7388 L589.1245,16.7388 Z M595.0205,29.7628 L581.3065,29.7628 L581.3065,28.5928 C581.3065,22.6348 584.6675,20.1608 588.7865,20.1608 C592.9605,20.1608 595.0205,22.9778 595.0205,26.6768 L595.0205,29.7628 Z" id="Fill-29" fill="#030404" sketch:type="MSShapeGroup" mask="url(#mask-6)"></path>
            </g>
            <path d="M315.5576,12.9341 C315.6016,9.5901 313.4766,5.6441 308.3966,5.7831 C304.8066,5.8811 302.0176,8.6611 301.9786,12.2371 C301.9626,14.2331 302.5946,16.0261 303.5976,17.7081 C304.8576,19.8151 306.6336,21.4751 308.4206,23.1101 C308.5076,23.1971 308.7856,23.1751 308.9276,23.1011 C310.2326,22.4101 311.3786,21.5001 312.3696,20.4011 C314.2826,18.2791 315.4796,15.8441 315.5576,12.9341 M304.2166,29.2261 C304.1466,29.2441 304.1026,29.2441 304.0846,29.2661 C300.7656,31.7991 298.7426,35.0271 299.0556,39.3251 C299.3066,42.8421 301.0936,45.3841 304.4296,46.6561 C307.2736,47.7361 310.1616,47.5591 313.0256,46.7021 C315.2526,46.0351 317.2036,44.8691 318.9956,43.3301 C314.0456,38.6051 309.1276,33.9061 304.2166,29.2261 M311.0336,25.4521 C315.4686,29.5841 319.8436,33.6601 324.2746,37.7941 C327.1776,33.4251 329.1106,28.7541 329.7906,23.5301 L324.0856,23.5301 L324.0856,19.4761 L339.9606,19.4761 L339.9606,23.4901 L334.3866,23.4901 C333.1926,29.6701 330.9606,35.3471 327.0806,40.2281 C327.8456,41.0341 328.5776,41.8861 329.4026,42.6421 C330.5486,43.6931 331.7546,44.7091 332.9646,45.6891 C334.7246,47.1271 336.7436,47.9451 339.0186,48.1401 C339.4656,48.1801 339.9126,48.2851 340.3886,48.3651 L340.3886,51.4041 L339.8466,51.4041 C335.7266,51.4041 331.5976,51.4041 327.4726,51.4161 C327.1346,51.4161 326.8906,51.3241 326.6566,51.0861 C325.0886,49.4761 323.4966,47.8931 321.9216,46.2981 C321.7966,46.1711 321.7136,46.0041 321.5986,45.8381 C320.8286,46.4641 320.1736,47.0041 319.4956,47.5291 C316.0366,50.2261 312.1106,51.6481 307.7336,51.9291 C305.0706,52.1011 302.4356,52.0091 299.8546,51.2281 C293.5936,49.3181 290.8076,43.9621 291.2556,38.3311 C291.5356,34.8481 293.2126,32.1361 295.9406,30.0831 C297.2976,29.0591 298.8176,28.2411 300.2776,27.3471 C300.6656,27.1061 301.1006,26.9271 301.5866,26.6801 C301.0936,26.1531 300.6196,25.6561 300.1526,25.1591 C298.2526,23.1541 296.6246,20.9661 295.7936,18.2901 C294.8846,15.3721 294.8146,12.4411 295.9806,9.5681 C297.2066,6.5321 299.4736,4.5271 302.5136,3.4151 C306.2916,2.0421 310.1486,1.9621 313.9596,3.2711 C320.9056,5.6561 323.2966,13.6351 318.8726,19.5181 C317.0636,21.9341 314.6356,23.5891 311.9916,24.9681 C311.7036,25.1221 311.4096,25.2671 311.0336,25.4521" id="Fill-32" fill="#030404" sketch:type="MSShapeGroup"></path>
        </g>
    </g>
</svg>